<svg version="1.1" id="Layer_1" xmlns="http://www.w3.org/2000/svg" xmlns:xlink="http://www.w3.org/1999/xlink" x="0px" y="0px"
	 width="100%" viewBox="0 0 512 512" enable-background="new 0 0 512 512" xml:space="preserve">
<path fill="#FEFEFE" opacity="1.000000" stroke="none" 
	d="
M240.000000,513.000000 
	C160.368301,513.000000 80.736610,513.000000 1.052459,513.000000 
	C1.052459,342.443237 1.052459,171.886459 1.052459,1.000000 
	C80.021706,1.000000 159.043869,1.000000 238.353058,1.384820 
	C227.622345,3.291982 216.456772,4.125208 205.611588,6.451910 
	C148.293854,18.748722 100.066040,46.944614 62.663166,92.082497 
	C9.003708,156.838882 -8.850425,231.161652 8.690229,313.231812 
	C21.138908,371.477386 51.867065,419.200653 98.186081,456.586151 
	C134.198013,485.652496 175.288513,503.505981 221.185776,510.090240 
	C227.467056,510.991333 233.729065,512.026794 240.000000,513.000000 
z"/>
<path fill="#040404" opacity="1.000000" stroke="none" 
	d="
M240.444168,513.000000 
	C233.729065,512.026794 227.467056,510.991333 221.185776,510.090240 
	C175.288513,503.505981 134.198013,485.652496 98.186081,456.586151 
	C51.867065,419.200653 21.138908,371.477386 8.690229,313.231812 
	C-8.850425,231.161652 9.003708,156.838882 62.663166,92.082497 
	C100.066040,46.944614 148.293854,18.748722 205.611588,6.451910 
	C216.456772,4.125208 227.622345,3.291982 238.820038,1.384820 
	C251.354233,1.000000 263.708466,1.000000 276.695740,1.398380 
	C309.648865,4.009896 340.584564,11.884542 369.451996,26.481318 
	C444.647125,64.503647 491.525085,124.703316 509.188049,207.317429 
	C510.584991,213.851288 511.735138,220.437897 513.000000,227.000000 
	C513.000000,247.020889 513.000000,267.041779 512.624023,287.694092 
	C510.276764,298.741150 508.830261,309.288971 506.246216,319.550385 
	C492.634003,373.605774 464.118530,418.468140 421.331635,454.031860 
	C382.465179,486.336914 337.724915,505.370270 287.417816,511.102936 
	C282.931427,511.614197 278.471954,512.362061 274.000000,513.000000 
	C272.285645,513.000000 270.571289,513.000000 268.201752,512.635132 
	C261.031036,512.513489 254.515518,512.756775 248.000000,513.000000 
	C245.629440,513.000000 243.258896,513.000000 240.444168,513.000000 
M480.980652,354.424011 
	C501.995087,305.387604 506.903259,254.764114 495.101135,202.760101 
	C465.237061,71.168999 332.925629,-11.110646 201.985809,20.248629 
	C71.094513,51.596275 -9.285077,182.501556 21.857662,313.603210 
	C55.126053,453.653168 203.615005,534.536560 339.158295,486.031311 
	C404.737335,462.563354 451.504669,418.219177 480.980652,354.424011 
z"/>
<path fill="#FEFEFE" opacity="1.000000" stroke="none" 
	d="
M274.468658,513.000000 
	C278.471954,512.362061 282.931427,511.614197 287.417816,511.102936 
	C337.724915,505.370270 382.465179,486.336914 421.331635,454.031860 
	C464.118530,418.468140 492.634003,373.605774 506.246216,319.550385 
	C508.830261,309.288971 510.276764,298.741150 512.624023,288.162720 
	C513.000000,362.929230 513.000000,437.858490 513.000000,513.000000 
	C433.645905,513.000000 354.291595,513.000000 274.468658,513.000000 
z"/>
<path fill="#FEFEFE" opacity="1.000000" stroke="none" 
	d="
M513.000000,226.531342 
	C511.735138,220.437897 510.584991,213.851288 509.188049,207.317429 
	C491.525085,124.703316 444.647125,64.503647 369.451996,26.481318 
	C340.584564,11.884542 309.648865,4.009896 277.164429,1.398380 
	C355.592133,1.000000 434.184235,1.000000 513.000000,1.000000 
	C513.000000,76.020744 513.000000,151.041718 513.000000,226.531342 
z"/>
<path fill="#5F5F5F" opacity="1.000000" stroke="none" 
	d="
M248.468414,513.000000 
	C254.515518,512.756775 261.031036,512.513489 267.773285,512.635132 
	C261.645599,513.000000 255.291214,513.000000 248.468414,513.000000 
z"/>
<path fill="#FDFDFD" opacity="1.000000" stroke="none" 
	d="
M480.836761,354.779144 
	C451.504669,418.219177 404.737335,462.563354 339.158295,486.031311 
	C203.615005,534.536560 55.126053,453.653168 21.857662,313.603210 
	C-9.285077,182.501556 71.094513,51.596275 201.985809,20.248629 
	C332.925629,-11.110646 465.237061,71.168999 495.101135,202.760101 
	C506.903259,254.764114 501.995087,305.387604 480.836761,354.779144 
M38.438751,177.875275 
	C38.296928,178.248703 38.155106,178.622147 37.462330,179.434036 
	C36.641895,181.957062 35.821461,184.480072 35.040485,187.785828 
	C23.017677,228.113159 21.416157,268.765106 30.844057,309.863525 
	C57.572308,426.378174 171.889725,509.350616 299.645416,486.645203 
	C362.154724,475.535614 411.948303,443.018585 449.009766,391.388580 
	C462.226501,372.976440 472.607513,353.033478 479.754822,331.008301 
	C479.742279,330.579376 479.729706,330.150482 479.717163,329.721558 
	C479.354126,330.040375 478.991058,330.359222 477.744537,330.806519 
	C469.918396,330.872681 462.088501,331.115845 454.267212,330.951355 
	C447.484894,330.808716 444.818726,328.285767 443.386719,321.695526 
	C443.150848,320.610107 442.548523,319.609100 442.175537,318.548004 
	C439.412384,310.687103 437.098816,302.624695 433.682220,295.059937 
	C432.442047,292.314056 433.973114,286.417633 427.747253,287.203583 
	C412.130798,289.174896 396.525330,291.234528 380.902771,293.155731 
	C377.593353,293.562683 375.756134,295.016724 374.524048,298.257904 
	C371.121521,307.208893 367.262360,315.985413 363.654388,324.859680 
	C362.646484,327.338654 361.185364,328.423645 358.352295,328.022125 
	C352.429840,327.182709 346.431763,326.850159 340.528320,325.910400 
	C334.571472,324.962097 333.868652,323.526825 335.851990,318.048889 
	C340.067841,306.404785 344.552368,294.849670 348.414825,283.089905 
	C349.989960,278.294189 350.235687,273.061768 351.182373,267.459229 
	C354.982300,270.427643 356.222748,268.066925 357.303040,265.380035 
	C362.569885,252.280853 368.188232,239.309265 373.005981,226.046860 
	C378.373505,211.270920 382.916931,196.197098 388.078156,181.342957 
	C388.791107,179.291138 390.842194,176.399277 392.529480,176.213058 
	C400.560699,175.326706 408.677429,175.112640 416.769836,174.929443 
	C420.423523,174.846725 422.212128,177.252243 423.292572,180.662918 
	C425.335510,187.111847 427.586334,193.506439 430.036499,199.812592 
	C436.931580,217.559006 444.045776,235.220474 450.902802,252.981384 
	C452.622955,257.436859 455.115143,259.785645 460.166168,259.130615 
	C462.695404,258.802612 465.329224,259.281342 467.294617,259.367859 
	C468.632141,262.795715 469.683868,265.491089 470.871674,268.535248 
	C469.483032,269.382996 468.052338,270.256409 466.452606,271.233002 
	C467.410736,272.490997 468.208618,273.538605 469.511963,275.249817 
	C466.502533,275.249817 464.283997,275.249817 460.582611,275.249817 
	C467.213379,292.729706 473.508301,309.324371 480.284424,327.187500 
	C481.565186,323.785736 482.463013,321.863708 483.022095,319.847748 
	C494.338562,279.042725 494.770966,238.063217 483.913818,197.179962 
	C453.203461,81.538399 339.406555,4.611228 215.655685,27.449865 
	C144.500458,40.581799 90.808975,80.113304 54.654343,142.814178 
	C48.267830,153.889938 44.122910,166.258270 39.022095,178.006592 
	C39.022095,178.006592 39.044338,177.927094 38.438751,177.875275 
M390.443726,258.956238 
	C389.591370,261.195312 388.738983,263.434357 387.639557,266.322449 
	C396.860046,264.805420 405.400360,263.745667 413.771790,261.913849 
	C420.486206,260.444611 421.161530,258.227325 418.360535,251.983978 
	C416.808563,248.524811 415.479675,244.963959 414.099060,241.429855 
	C411.530762,234.855362 408.998199,228.266907 406.123962,220.839874 
	C400.809021,233.843765 395.816040,246.059921 390.443726,258.956238 
z"/>
<path fill="#010101" opacity="1.000000" stroke="none" 
	d="
M38.942837,178.029694 
	C44.122910,166.258270 48.267830,153.889938 54.654343,142.814178 
	C90.808975,80.113304 144.500458,40.581799 215.655685,27.449865 
	C339.406555,4.611228 453.203461,81.538399 483.913818,197.179962 
	C494.770966,238.063217 494.338562,279.042725 483.022095,319.847748 
	C482.463013,321.863708 481.565186,323.785736 480.284424,327.187500 
	C473.508301,309.324371 467.213379,292.729706 460.582611,275.249817 
	C464.283997,275.249817 466.502533,275.249817 469.511963,275.249817 
	C468.208618,273.538605 467.410736,272.490997 466.452606,271.233002 
	C468.052338,270.256409 469.483032,269.382996 470.871674,268.535248 
	C469.683868,265.491089 468.632141,262.795715 467.294617,259.367859 
	C465.329224,259.281342 462.695404,258.802612 460.166168,259.130615 
	C455.115143,259.785645 452.622955,257.436859 450.902802,252.981384 
	C444.045776,235.220474 436.931580,217.559006 430.036499,199.812592 
	C427.586334,193.506439 425.335510,187.111847 423.292572,180.662918 
	C422.212128,177.252243 420.423523,174.846725 416.769836,174.929443 
	C408.677429,175.112640 400.560699,175.326706 392.529480,176.213058 
	C390.842194,176.399277 388.791107,179.291138 388.078156,181.342957 
	C382.916931,196.197098 378.373505,211.270920 373.005981,226.046860 
	C368.188232,239.309265 362.569885,252.280853 357.303040,265.380035 
	C356.222748,268.066925 354.982300,270.427643 351.182373,267.459229 
	C350.235687,273.061768 349.989960,278.294189 348.414825,283.089905 
	C344.552368,294.849670 340.067841,306.404785 335.851990,318.048889 
	C333.868652,323.526825 334.571472,324.962097 340.528320,325.910400 
	C346.431763,326.850159 352.429840,327.182709 358.352295,328.022125 
	C361.185364,328.423645 362.646484,327.338654 363.654388,324.859680 
	C367.262360,315.985413 371.121521,307.208893 374.524048,298.257904 
	C375.756134,295.016724 377.593353,293.562683 380.902771,293.155731 
	C396.525330,291.234528 412.130798,289.174896 427.747253,287.203583 
	C433.973114,286.417633 432.442047,292.314056 433.682220,295.059937 
	C437.098816,302.624695 439.412384,310.687103 442.175537,318.548004 
	C442.548523,319.609100 443.150848,320.610107 443.386719,321.695526 
	C444.818726,328.285767 447.484894,330.808716 454.267212,330.951355 
	C462.088501,331.115845 469.918396,330.872681 478.353455,330.891693 
	C478.962372,330.976868 479.292725,331.279999 479.292725,331.279999 
	C472.607513,353.033478 462.226501,372.976440 449.009766,391.388580 
	C411.948303,443.018585 362.154724,475.535614 299.645416,486.645203 
	C171.889725,509.350616 57.572308,426.378174 30.844057,309.863525 
	C21.416157,268.765106 23.017677,228.113159 35.425842,187.549789 
	C36.184044,191.440842 36.417133,195.586700 36.968632,199.689774 
	C37.531860,203.880096 39.590137,205.524780 44.347309,205.363388 
	C58.095234,204.896942 71.869209,205.198425 85.993698,205.198425 
	C85.993698,205.178635 85.999886,205.974304 85.992798,206.769836 
	C85.648369,245.426498 85.313652,284.083221 84.943466,322.739655 
	C84.897469,327.543518 86.696960,329.724243 91.400833,330.133850 
	C94.719185,330.422791 98.036736,330.772430 101.362381,330.916870 
	C114.289459,331.478119 114.814674,330.817078 115.032341,317.908691 
	C115.639137,281.923920 116.361389,245.941071 117.077972,209.958267 
	C117.122894,207.702866 117.511101,205.454269 117.742317,203.175842 
	C119.052811,203.023483 119.868988,202.878189 120.690079,202.840637 
	C133.830490,202.239822 146.967484,201.499359 160.114822,201.153214 
	C164.218674,201.045151 165.583694,199.381927 164.984207,195.691711 
	C164.005005,189.664200 162.891418,183.658295 161.810760,177.647552 
	C161.058975,173.466125 158.252136,171.857208 154.312378,172.021820 
	C148.836563,172.250610 143.368149,172.656143 137.896545,172.985687 
	C117.785316,174.196976 97.679848,175.516953 77.560791,176.580048 
	C64.698517,177.259674 51.816181,177.559570 38.942837,178.029694 
M228.999649,115.978065 
	C223.913940,118.425209 218.815292,120.846420 213.765305,123.365173 
	C213.326736,123.583916 213.103104,124.420013 212.959106,125.012939 
	C211.923523,129.276901 210.934326,133.552109 209.376770,138.275604 
	C208.796494,139.900360 208.216217,141.525116 207.635941,143.149887 
	C209.706955,143.121643 211.780319,143.137283 213.846924,143.026611 
	C214.241058,143.005478 214.608475,142.485458 215.751770,142.099945 
	C217.139832,141.553268 218.551132,140.484695 219.912140,140.545303 
	C228.215149,140.915192 230.910721,134.984512 233.574097,128.866486 
	C234.588806,126.535583 235.215652,123.599915 236.997803,122.111496 
	C246.772568,113.947769 257.446747,106.777771 266.670074,98.058517 
	C277.481049,87.838402 287.244171,76.489243 297.161346,65.362030 
	C299.094727,63.192764 299.652222,59.797218 301.554138,56.857819 
	C304.699127,56.065372 306.544617,53.656639 305.042023,51.028282 
	C303.649384,48.592178 300.840302,46.287674 298.182770,45.481415 
	C296.279907,44.904102 293.449890,46.767517 293.261871,50.068245 
	C290.615814,51.320396 287.672455,52.173092 285.369934,53.886826 
	C263.600128,70.090012 246.984070,91.148422 230.695007,112.484879 
	C230.173782,113.167610 230.506897,114.502571 230.094162,115.888542 
	C230.094162,115.888542 229.733490,116.226181 228.999649,115.978065 
M191.904892,277.368713 
	C191.352707,280.134918 191.133591,283.020752 190.190201,285.646423 
	C186.274582,296.544434 182.115707,307.354797 178.097275,318.216248 
	C176.227005,323.271423 176.910217,324.870789 182.205765,325.785767 
	C188.256790,326.831268 194.431915,327.137451 200.518082,328.009460 
	C203.496078,328.436157 205.047256,327.401764 206.129456,324.682831 
	C209.680542,315.760925 213.291641,306.858948 217.133636,298.060181 
	C217.884720,296.340118 219.573959,294.155273 221.170715,293.823853 
	C230.076477,291.975342 239.056305,290.404938 248.071091,289.184967 
	C255.475449,288.182953 262.956848,287.667572 270.421936,287.278107 
	C271.670044,287.213013 273.709106,288.610291 274.187805,289.808960 
	C276.573120,295.782013 278.499969,301.936127 280.705322,307.983795 
	C282.369385,312.547150 284.706604,316.924561 285.852173,321.603119 
	C287.449402,328.126434 289.725861,330.711945 296.527008,330.958557 
	C302.849976,331.187836 309.188293,331.201599 315.514862,331.070282 
	C323.168427,330.911438 324.318939,328.389435 321.024719,321.387054 
	C314.071136,306.606140 307.975922,291.480865 304.061768,275.291199 
	C306.651520,275.151001 308.880096,275.030334 311.819183,274.871185 
	C310.524719,273.304962 309.674011,272.275665 309.101044,271.582428 
	C310.607056,270.005768 312.821930,268.765228 312.871399,267.443634 
	C313.059509,262.416290 309.169739,258.872833 303.875031,259.127869 
	C298.994873,259.362946 295.391144,258.633057 293.368835,253.266434 
	C285.028015,231.132690 276.165436,209.195007 267.877472,187.042023 
	C263.126587,174.343246 262.795380,173.759262 249.025360,174.139008 
	C247.694153,174.175705 246.356842,174.447891 245.037003,174.368210 
	C234.903046,173.756409 230.805756,179.033600 227.700958,188.431488 
	C219.215469,214.116165 209.341049,239.342346 199.988449,264.739716 
	C198.937225,267.594330 197.746933,270.455292 193.529922,267.734833 
	C192.951462,271.016479 192.467209,273.763733 191.904892,277.368713 
M207.913147,368.791901 
	C205.129135,368.540619 203.632828,369.276337 205.154236,372.422516 
	C207.025162,372.599976 208.870544,372.775024 211.188553,372.994873 
	C208.392273,376.857727 205.224747,377.191925 202.223770,374.964325 
	C199.328827,372.815369 199.092957,369.535248 201.044617,366.509644 
	C202.999832,363.478577 205.602249,363.332092 208.812637,364.971649 
	C210.602448,365.885712 212.896057,365.813293 215.532364,366.288025 
	C212.372894,359.694946 207.316162,357.635803 201.578552,359.788208 
	C196.011353,361.876678 193.308609,367.649261 195.079391,373.669159 
	C196.555664,378.687866 202.331482,381.972076 207.787140,380.895020 
	C213.438766,379.779297 216.219543,375.666595 215.638321,368.792145 
	C213.389465,368.792145 211.096802,368.792145 207.913147,368.791901 
M256.129059,372.521912 
	C255.643890,369.779388 255.158722,367.036865 254.634262,364.072174 
	C252.882278,364.072174 251.302017,364.072174 249.350525,364.072174 
	C250.938293,369.872772 252.446747,375.383606 253.909576,380.727783 
	C256.170197,380.727783 257.948242,380.727783 259.628387,380.727783 
	C260.546814,377.410187 261.395844,374.343170 262.480194,370.426208 
	C263.589050,374.519226 264.440765,377.663025 265.304565,380.851532 
	C267.188904,380.851532 268.825043,380.851532 270.913055,380.851532 
	C272.398346,375.394775 273.894470,369.898285 275.405365,364.347473 
	C269.689484,363.627869 271.222931,361.740845 268.290894,374.998352 
	C267.130554,370.680084 266.257385,367.430603 265.408325,364.270782 
	C261.152313,362.858154 258.994537,364.011261 258.631622,368.547668 
	C258.498871,370.207214 257.197266,371.773254 256.129059,372.521912 
M406.915436,368.636353 
	C405.196686,375.437714 408.003998,380.902374 413.434753,380.993134 
	C416.896698,381.050964 420.365662,380.687317 423.946686,380.506836 
	C423.946686,373.159912 423.946686,365.769928 423.946686,358.385651 
	C422.184235,358.385651 420.650726,358.385651 419.136200,358.385651 
	C419.024811,360.771545 418.928986,362.823059 418.827972,364.986359 
	C412.504578,362.508057 410.786652,362.970734 406.915436,368.636353 
M295.943512,370.611053 
	C297.647705,371.225372 299.519562,371.583008 300.995483,372.546875 
	C301.933441,373.159454 302.283173,374.672791 302.896667,375.782196 
	C301.638947,375.846161 300.311096,376.196564 299.139313,375.909546 
	C297.187225,375.431396 295.335144,374.544830 292.817963,373.595184 
	C294.216583,379.891479 299.019684,382.734985 303.905670,380.557739 
	C305.995483,379.626526 308.440521,377.032043 308.623901,375.003479 
	C308.793365,373.128571 306.357086,370.806732 304.675995,369.059174 
	C303.741394,368.087555 301.820190,368.128754 300.688324,367.262939 
	C299.780518,366.568451 299.391937,365.195312 298.772949,364.123322 
	C299.920044,364.082733 301.110046,363.828247 302.204895,364.048065 
	C304.223480,364.453278 306.186218,365.136963 308.768768,365.875153 
	C307.640137,360.562958 304.718140,358.669952 301.001556,359.171295 
	C298.335266,359.531006 294.943024,360.828094 293.638824,362.846741 
	C292.697632,364.303589 294.657318,367.634644 295.943512,370.611053 
M121.019577,366.578461 
	C119.826103,365.713531 118.748405,364.542816 117.418137,364.039276 
	C112.854111,362.311493 107.632141,364.491272 106.111847,368.548157 
	C104.259445,373.491272 106.487968,378.971191 111.024727,380.628723 
	C115.775200,382.364410 120.099289,380.216003 121.618843,375.688446 
	C118.663689,372.018341 114.074608,380.182312 110.451942,373.407166 
	C115.104370,373.407166 118.841400,373.407166 123.267609,373.407166 
	C122.530380,370.892853 121.990822,369.052673 121.019577,366.578461 
M403.998779,376.111023 
	C401.993683,376.069672 399.986725,376.067841 397.984039,375.974701 
	C396.326202,375.897614 394.673431,375.712891 393.018402,375.575836 
	C393.086304,374.920990 393.154205,374.266113 393.222076,373.611267 
	C395.133423,373.611267 397.044769,373.611267 398.956116,373.611267 
	C400.860779,373.611267 402.765442,373.611267 404.698669,373.611267 
	C404.282135,365.956085 400.825836,362.759033 394.744324,363.647278 
	C389.333191,364.437622 386.209900,368.990967 388.101898,374.731720 
	C388.899353,377.151367 391.510681,379.758240 393.912781,380.684692 
	C397.758423,382.167877 401.397034,380.543243 403.998779,376.111023 
M382.852814,373.608856 
	C385.494263,373.851990 385.900330,372.577179 385.417938,370.254608 
	C384.525757,365.958801 381.487488,363.414551 376.935883,363.460419 
	C372.070099,363.509430 368.870697,366.471405 368.393036,371.369293 
	C367.963867,375.769867 370.694305,379.902740 374.685150,380.893280 
	C379.237488,382.023193 382.691406,380.153717 385.107605,374.684845 
	C382.680939,375.203461 380.724335,375.815460 378.730011,375.985779 
	C377.166229,376.119324 375.555817,375.706299 373.966125,375.536102 
	C374.048157,374.893677 374.130188,374.251251 374.212250,373.608826 
	C376.807007,373.608826 379.401764,373.608826 382.852814,373.608856 
M128.047165,364.472321 
	C124.357079,367.387634 122.840797,371.285065 124.945786,375.440704 
	C126.112389,377.743774 128.734573,380.222046 131.126404,380.772888 
	C134.505432,381.551147 138.278381,380.618958 141.917603,380.416016 
	C141.917603,374.987152 141.917603,369.548462 141.917603,364.080353 
	C137.369858,364.080353 133.026062,364.080353 128.047165,364.472321 
M243.395142,380.287689 
	C248.214966,377.254791 249.802536,373.164032 247.928116,368.607544 
	C246.288513,364.621887 241.784866,362.665466 237.064697,363.888397 
	C232.702377,365.018616 230.334915,368.922058 230.984665,373.913239 
	C231.665863,379.146149 235.675415,381.467163 243.395142,380.287689 
M176.074463,374.553314 
	C176.051270,372.729553 176.240814,370.872192 175.958984,369.089325 
	C175.431427,365.752106 173.402252,363.681152 169.921341,363.699554 
	C166.396042,363.718170 162.872559,364.082825 159.262573,364.301056 
	C159.262573,369.682617 159.262573,375.093872 159.262573,380.676208 
	C161.011444,380.676208 162.544037,380.676208 164.421539,380.676208 
	C164.421539,377.263397 164.127350,374.088287 164.574982,371.021484 
	C164.740265,369.889191 166.667877,368.220612 167.763794,368.241760 
	C168.850723,368.262726 170.429611,369.931091 170.839203,371.187714 
	C171.377258,372.838501 170.956833,374.793884 170.996735,376.617249 
	C171.028107,378.050262 171.132446,379.481689 171.210541,381.036530 
	C173.022156,380.931213 174.434479,380.849121 176.074554,380.753784 
	C176.074554,378.765778 176.074554,377.127136 176.074463,374.553314 
M328.320892,363.967072 
	C326.880524,363.967072 325.440186,363.967072 323.622070,363.967072 
	C323.622070,367.273956 323.978821,370.299011 323.461945,373.166595 
	C323.226196,374.474396 321.265991,375.471313 320.087921,376.609222 
	C319.067444,375.480499 317.604370,374.505707 317.144104,373.182159 
	C316.627289,371.695953 317.041046,369.894165 317.003967,368.230682 
	C316.971771,366.787201 316.875427,365.345154 316.800629,363.758545 
	C314.980316,363.848480 313.564270,363.918457 311.960327,363.997742 
	C311.960327,367.859161 311.842926,371.336304 311.992462,374.801941 
	C312.150208,378.457275 314.173615,380.720581 317.860687,380.944855 
	C321.417145,381.161194 324.997101,380.991638 328.433685,380.991638 
	C328.668671,380.338409 328.875458,380.029602 328.876892,379.719849 
	C328.900024,374.727570 328.897034,369.735138 328.320892,363.967072 
M229.182999,156.043030 
	C233.298645,155.662277 237.552063,155.812302 241.500580,154.787582 
	C249.149200,152.802628 250.899734,149.945053 249.752274,142.168488 
	C249.209595,138.490570 250.744766,136.376968 253.780975,135.096725 
	C256.726288,133.854813 259.802124,132.922379 263.489532,131.617264 
	C252.299973,129.385071 245.935989,134.574326 247.014847,144.418808 
	C247.370468,147.663651 246.137924,149.965790 243.299469,150.553482 
	C237.683258,151.716293 231.946594,152.327560 226.240829,153.008423 
	C224.628021,153.200867 222.949692,152.844040 221.301407,152.739136 
	C221.220291,153.281906 221.139160,153.824692 221.058044,154.367462 
	C223.494644,154.900589 225.931259,155.433701 229.182999,156.043030 
M365.297089,366.302307 
	C363.581818,365.414001 361.952332,364.062866 360.134827,363.725922 
	C355.089386,362.790527 351.275421,365.599365 350.284698,370.528290 
	C349.351990,375.168549 352.266510,379.929901 356.642395,380.914642 
	C361.460754,381.998962 365.042755,379.805481 366.760315,374.054993 
	C364.215942,374.835144 362.148132,375.737946 359.998505,376.022736 
	C358.798584,376.181702 356.530426,375.538544 356.368103,374.865234 
	C355.934296,373.065704 356.092010,370.964844 356.650574,369.183105 
	C356.814606,368.659912 359.157074,368.497314 360.409180,368.710297 
	C362.483948,369.063141 364.484192,369.854370 367.544708,370.768127 
	C366.575684,368.648560 366.176361,367.775085 365.297089,366.302307 
M338.161865,363.784271 
	C332.876923,364.881073 331.426575,368.570953 331.754517,373.383270 
	C332.056793,377.819214 334.569946,380.416870 338.882935,380.953125 
	C343.277039,381.499481 346.506866,379.783508 348.397766,374.352692 
	C345.733490,374.924255 343.803192,375.534851 341.836517,375.693420 
	C340.449921,375.805145 337.887085,375.514954 337.797424,375.038055 
	C337.434540,373.107635 337.589600,370.970154 338.115723,369.064270 
	C338.237640,368.622711 340.614258,368.545349 341.886597,368.738953 
	C343.886871,369.043457 345.830475,369.720184 348.493469,370.422791 
	C346.655701,364.629669 343.299011,363.290771 338.161865,363.784271 
M98.415062,380.955078 
	C100.593040,380.341614 105.117012,382.845245 103.601830,377.092316 
	C101.404549,376.934753 99.333443,376.786255 96.903519,376.612000 
	C96.903519,370.657471 96.903519,365.057007 96.903519,359.383972 
	C95.108734,359.383972 93.709991,359.383972 92.246407,359.383972 
	C92.246407,366.666138 92.246407,373.725922 92.246407,380.955048 
	C94.184090,380.955048 95.829521,380.955048 98.415062,380.955078 
M154.184387,364.121552 
	C151.668060,364.121552 149.151733,364.121552 146.511780,364.121552 
	C146.511780,369.681396 146.511780,375.210785 146.511780,381.060303 
	C148.386490,380.936951 149.942886,380.834534 151.250549,380.748505 
	C153.274887,376.350861 148.204544,369.202423 158.385620,368.572662 
	C156.882889,366.532532 155.912476,365.215057 154.184387,364.121552 
M225.727402,364.744141 
	C223.558655,364.409668 221.389923,364.075195 219.026428,363.710693 
	C219.026428,369.731262 219.026428,375.256073 219.026428,380.700500 
	C220.765213,380.700500 222.173645,380.700500 223.450668,380.700500 
	C225.454071,376.461670 220.379837,369.379395 229.575211,368.535004 
	C228.081833,366.970856 231.435226,362.941589 225.727402,364.744141 
M182.718262,383.265411 
	C183.538467,380.983978 184.358658,378.702545 185.346741,375.954163 
	C183.382523,376.050934 181.835159,376.127167 180.300079,376.202789 
	C179.765961,379.305145 179.305984,381.976929 178.690582,385.551392 
	C180.435333,384.772949 181.359436,384.360626 182.718262,383.265411 
M280.834686,382.385284 
	C281.538513,380.398712 282.242371,378.412140 283.013641,376.235199 
	C281.268433,376.235199 279.721344,376.235199 278.109497,376.235199 
	C277.609894,379.152863 277.151489,381.830078 276.417328,386.117432 
	C278.539246,384.521118 279.488190,383.807220 280.834686,382.385284 
z"/>
<path fill="#FBFBFB" opacity="1.000000" stroke="none" 
	d="
M38.982468,178.018143 
	C51.816181,177.559570 64.698517,177.259674 77.560791,176.580048 
	C97.679848,175.516953 117.785316,174.196976 137.896545,172.985687 
	C143.368149,172.656143 148.836563,172.250610 154.312378,172.021820 
	C158.252136,171.857208 161.058975,173.466125 161.810760,177.647552 
	C162.891418,183.658295 164.005005,189.664200 164.984207,195.691711 
	C165.583694,199.381927 164.218674,201.045151 160.114822,201.153214 
	C146.967484,201.499359 133.830490,202.239822 120.690079,202.840637 
	C119.868988,202.878189 119.052811,203.023483 117.742317,203.175842 
	C117.511101,205.454269 117.122894,207.702866 117.077972,209.958267 
	C116.361389,245.941071 115.639137,281.923920 115.032341,317.908691 
	C114.814674,330.817078 114.289459,331.478119 101.362381,330.916870 
	C98.036736,330.772430 94.719185,330.422791 91.400833,330.133850 
	C86.696960,329.724243 84.897469,327.543518 84.943466,322.739655 
	C85.313652,284.083221 85.648369,245.426498 85.992798,206.769836 
	C85.999886,205.974304 85.993698,205.178635 85.993698,205.198425 
	C71.869209,205.198425 58.095234,204.896942 44.347309,205.363388 
	C39.590137,205.524780 37.531860,203.880096 36.968632,199.689774 
	C36.417133,195.586700 36.184044,191.440842 35.406113,187.158417 
	C35.821461,184.480072 36.641895,181.957062 38.103386,179.223419 
	C38.844410,178.650909 38.944374,178.289001 39.044338,177.927094 
	C39.044338,177.927094 39.022095,178.006592 38.982468,178.018143 
z"/>
<path fill="#040404" opacity="1.000000" stroke="none" 
	d="
M390.633392,258.616150 
	C395.816040,246.059921 400.809021,233.843765 406.123962,220.839874 
	C408.998199,228.266907 411.530762,234.855362 414.099060,241.429855 
	C415.479675,244.963959 416.808563,248.524811 418.360535,251.983978 
	C421.161530,258.227325 420.486206,260.444611 413.771790,261.913849 
	C405.400360,263.745667 396.860046,264.805420 387.639557,266.322449 
	C388.738983,263.434357 389.591370,261.195312 390.633392,258.616150 
z"/>
<path fill="#010101" opacity="1.000000" stroke="none" 
	d="
M478.795197,330.827454 
	C478.991058,330.359222 479.354126,330.040375 479.717163,329.721558 
	C479.729706,330.150482 479.742279,330.579376 479.523773,331.144165 
	C479.292725,331.279999 478.962372,330.976868 478.795197,330.827454 
z"/>
<path fill="#010101" opacity="1.000000" stroke="none" 
	d="
M38.741547,177.901184 
	C38.944374,178.289001 38.844410,178.650909 38.378860,179.004196 
	C38.155106,178.622147 38.296928,178.248703 38.741547,177.901184 
z"/>
<path fill="#FDFDFD" opacity="1.000000" stroke="none" 
	d="
M191.943924,276.939819 
	C192.467209,273.763733 192.951462,271.016479 193.529922,267.734833 
	C197.746933,270.455292 198.937225,267.594330 199.988449,264.739716 
	C209.341049,239.342346 219.215469,214.116165 227.700958,188.431488 
	C230.805756,179.033600 234.903046,173.756409 245.037003,174.368210 
	C246.356842,174.447891 247.694153,174.175705 249.025360,174.139008 
	C262.795380,173.759262 263.126587,174.343246 267.877472,187.042023 
	C276.165436,209.195007 285.028015,231.132690 293.368835,253.266434 
	C295.391144,258.633057 298.994873,259.362946 303.875031,259.127869 
	C309.169739,258.872833 313.059509,262.416290 312.871399,267.443634 
	C312.821930,268.765228 310.607056,270.005768 309.101044,271.582428 
	C309.674011,272.275665 310.524719,273.304962 311.819183,274.871185 
	C308.880096,275.030334 306.651520,275.151001 304.061768,275.291199 
	C307.975922,291.480865 314.071136,306.606140 321.024719,321.387054 
	C324.318939,328.389435 323.168427,330.911438 315.514862,331.070282 
	C309.188293,331.201599 302.849976,331.187836 296.527008,330.958557 
	C289.725861,330.711945 287.449402,328.126434 285.852173,321.603119 
	C284.706604,316.924561 282.369385,312.547150 280.705322,307.983795 
	C278.499969,301.936127 276.573120,295.782013 274.187805,289.808960 
	C273.709106,288.610291 271.670044,287.213013 270.421936,287.278107 
	C262.956848,287.667572 255.475449,288.182953 248.071091,289.184967 
	C239.056305,290.404938 230.076477,291.975342 221.170715,293.823853 
	C219.573959,294.155273 217.884720,296.340118 217.133636,298.060181 
	C213.291641,306.858948 209.680542,315.760925 206.129456,324.682831 
	C205.047256,327.401764 203.496078,328.436157 200.518082,328.009460 
	C194.431915,327.137451 188.256790,326.831268 182.205765,325.785767 
	C176.910217,324.870789 176.227005,323.271423 178.097275,318.216248 
	C182.115707,307.354797 186.274582,296.544434 190.190201,285.646423 
	C191.133591,283.020752 191.352707,280.134918 191.943924,276.939819 
M233.272568,257.778137 
	C232.289993,260.438416 231.307419,263.098694 230.123489,266.304108 
	C239.327072,264.798309 247.877014,263.743530 256.258392,261.915771 
	C262.592834,260.534363 263.484406,257.882385 260.873932,252.089066 
	C259.459686,248.950470 258.161072,245.756897 256.899567,242.552963 
	C254.132141,235.524246 251.421585,228.473129 248.485794,220.910767 
	C243.428482,233.298264 238.562286,245.217667 233.272568,257.778137 
z"/>
<path fill="#F8F8F8" opacity="1.000000" stroke="none" 
	d="
M300.844330,56.967293 
	C299.652222,59.797218 299.094727,63.192764 297.161346,65.362030 
	C287.244171,76.489243 277.481049,87.838402 266.670074,98.058517 
	C257.446747,106.777771 246.772568,113.947769 236.997803,122.111496 
	C235.215652,123.599915 234.588806,126.535583 233.574097,128.866486 
	C230.910721,134.984512 228.215149,140.915192 219.912140,140.545303 
	C218.551132,140.484695 217.139832,141.553268 215.374634,141.768906 
	C216.453323,139.346664 217.923584,137.265320 219.359848,135.160782 
	C220.315445,133.760635 221.222488,132.327332 222.151260,130.908875 
	C221.677261,130.517014 221.203262,130.125153 220.729263,129.733307 
	C219.502579,130.792908 218.228836,131.803345 217.059769,132.923080 
	C215.078110,134.821152 213.174500,136.800949 211.174347,138.678513 
	C211.096085,138.751953 210.359985,138.124573 209.930420,137.823761 
	C210.934326,133.552109 211.923523,129.276901 212.959106,125.012939 
	C213.103104,124.420013 213.326736,123.583916 213.765305,123.365173 
	C218.815292,120.846420 223.913940,118.425209 229.395203,116.390961 
	C230.154694,117.185646 230.518631,117.567451 231.172455,118.065094 
	C232.166962,118.193169 232.871582,118.205391 233.576218,118.217621 
	C232.754074,117.467628 231.931931,116.717628 230.955048,115.840210 
	C230.800308,115.712784 230.441742,115.533478 230.441742,115.533478 
	C230.506897,114.502571 230.173782,113.167610 230.695007,112.484879 
	C246.984070,91.148422 263.600128,70.090012 285.369934,53.886826 
	C287.672455,52.173092 290.615814,51.320396 293.647736,50.435421 
	C296.303833,52.857494 298.574097,54.912395 300.844330,56.967293 
z"/>
<path fill="#F3F3F3" opacity="1.000000" stroke="none" 
	d="
M208.358643,368.792023 
	C211.096802,368.792145 213.389465,368.792145 215.638321,368.792145 
	C216.219543,375.666595 213.438766,379.779297 207.787140,380.895020 
	C202.331482,381.972076 196.555664,378.687866 195.079391,373.669159 
	C193.308609,367.649261 196.011353,361.876678 201.578552,359.788208 
	C207.316162,357.635803 212.372894,359.694946 215.532364,366.288025 
	C212.896057,365.813293 210.602448,365.885712 208.812637,364.971649 
	C205.602249,363.332092 202.999832,363.478577 201.044617,366.509644 
	C199.092957,369.535248 199.328827,372.815369 202.223770,374.964325 
	C205.224747,377.191925 208.392273,376.857727 211.188553,372.994873 
	C208.870544,372.775024 207.025162,372.599976 205.154236,372.422516 
	C203.632828,369.276337 205.129135,368.540619 208.358643,368.792023 
z"/>
<path fill="#F3F3F3" opacity="1.000000" stroke="none" 
	d="
M256.278961,372.951935 
	C257.197266,371.773254 258.498871,370.207214 258.631622,368.547668 
	C258.994537,364.011261 261.152313,362.858154 265.408325,364.270782 
	C266.257385,367.430603 267.130554,370.680084 268.290894,374.998352 
	C271.222931,361.740845 269.689484,363.627869 275.405365,364.347473 
	C273.894470,369.898285 272.398346,375.394775 270.913055,380.851532 
	C268.825043,380.851532 267.188904,380.851532 265.304565,380.851532 
	C264.440765,377.663025 263.589050,374.519226 262.480194,370.426208 
	C261.395844,374.343170 260.546814,377.410187 259.628387,380.727783 
	C257.948242,380.727783 256.170197,380.727783 253.909576,380.727783 
	C252.446747,375.383606 250.938293,369.872772 249.350525,364.072174 
	C251.302017,364.072174 252.882278,364.072174 254.634262,364.072174 
	C255.158722,367.036865 255.643890,369.779388 256.278961,372.951935 
z"/>
<path fill="#F6F6F6" opacity="1.000000" stroke="none" 
	d="
M407.005432,368.260986 
	C410.786652,362.970734 412.504578,362.508057 418.827972,364.986359 
	C418.928986,362.823059 419.024811,360.771545 419.136200,358.385651 
	C420.650726,358.385651 422.184235,358.385651 423.946686,358.385651 
	C423.946686,365.769928 423.946686,373.159912 423.946686,380.506836 
	C420.365662,380.687317 416.896698,381.050964 413.434753,380.993134 
	C408.003998,380.902374 405.196686,375.437714 407.005432,368.260986 
M415.412567,376.417511 
	C416.603210,374.791443 418.335632,373.289368 418.748413,371.485352 
	C418.945068,370.625946 416.802185,368.737366 415.384552,368.203979 
	C414.639465,367.923615 412.558441,369.324585 412.157227,370.376862 
	C411.232269,372.802765 411.363831,375.310089 415.412567,376.417511 
z"/>
<path fill="#F2F2F2" opacity="1.000000" stroke="none" 
	d="
M295.633331,370.370422 
	C294.657318,367.634644 292.697632,364.303589 293.638824,362.846741 
	C294.943024,360.828094 298.335266,359.531006 301.001556,359.171295 
	C304.718140,358.669952 307.640137,360.562958 308.768768,365.875153 
	C306.186218,365.136963 304.223480,364.453278 302.204895,364.048065 
	C301.110046,363.828247 299.920044,364.082733 298.772949,364.123322 
	C299.391937,365.195312 299.780518,366.568451 300.688324,367.262939 
	C301.820190,368.128754 303.741394,368.087555 304.675995,369.059174 
	C306.357086,370.806732 308.793365,373.128571 308.623901,375.003479 
	C308.440521,377.032043 305.995483,379.626526 303.905670,380.557739 
	C299.019684,382.734985 294.216583,379.891479 292.817963,373.595184 
	C295.335144,374.544830 297.187225,375.431396 299.139313,375.909546 
	C300.311096,376.196564 301.638947,375.846161 302.896667,375.782196 
	C302.283173,374.672791 301.933441,373.159454 300.995483,372.546875 
	C299.519562,371.583008 297.647705,371.225372 295.633331,370.370422 
z"/>
<path fill="#EFEFEF" opacity="1.000000" stroke="none" 
	d="
M121.235428,366.895508 
	C121.990822,369.052673 122.530380,370.892853 123.267609,373.407166 
	C118.841400,373.407166 115.104370,373.407166 110.451942,373.407166 
	C114.074608,380.182312 118.663689,372.018341 121.618843,375.688446 
	C120.099289,380.216003 115.775200,382.364410 111.024727,380.628723 
	C106.487968,378.971191 104.259445,373.491272 106.111847,368.548157 
	C107.632141,364.491272 112.854111,362.311493 117.418137,364.039276 
	C118.748405,364.542816 119.826103,365.713531 121.235428,366.895508 
z"/>
<path fill="#EFEFEF" opacity="1.000000" stroke="none" 
	d="
M403.881653,376.492126 
	C401.397034,380.543243 397.758423,382.167877 393.912781,380.684692 
	C391.510681,379.758240 388.899353,377.151367 388.101898,374.731720 
	C386.209900,368.990967 389.333191,364.437622 394.744324,363.647278 
	C400.825836,362.759033 404.282135,365.956085 404.698669,373.611267 
	C402.765442,373.611267 400.860779,373.611267 398.956116,373.611267 
	C397.044769,373.611267 395.133423,373.611267 393.222076,373.611267 
	C393.154205,374.266113 393.086304,374.920990 393.018402,375.575836 
	C394.673431,375.712891 396.326202,375.897614 397.984039,375.974701 
	C399.986725,376.067841 401.993683,376.069672 403.881653,376.492126 
z"/>
<path fill="#EFEFEF" opacity="1.000000" stroke="none" 
	d="
M382.424683,373.608826 
	C379.401764,373.608826 376.807007,373.608826 374.212250,373.608826 
	C374.130188,374.251251 374.048157,374.893677 373.966125,375.536102 
	C375.555817,375.706299 377.166229,376.119324 378.730011,375.985779 
	C380.724335,375.815460 382.680939,375.203461 385.107605,374.684845 
	C382.691406,380.153717 379.237488,382.023193 374.685150,380.893280 
	C370.694305,379.902740 367.963867,375.769867 368.393036,371.369293 
	C368.870697,366.471405 372.070099,363.509430 376.935883,363.460419 
	C381.487488,363.414551 384.525757,365.958801 385.417938,370.254608 
	C385.900330,372.577179 385.494263,373.851990 382.424683,373.608826 
z"/>
<path fill="#F6F6F6" opacity="1.000000" stroke="none" 
	d="
M128.364716,364.276337 
	C133.026062,364.080353 137.369858,364.080353 141.917603,364.080353 
	C141.917603,369.548462 141.917603,374.987152 141.917603,380.416016 
	C138.278381,380.618958 134.505432,381.551147 131.126404,380.772888 
	C128.734573,380.222046 126.112389,377.743774 124.945786,375.440704 
	C122.840797,371.285065 124.357079,367.387634 128.364716,364.276337 
M131.150803,368.828735 
	C131.039612,371.030090 130.740234,373.254608 131.005569,375.409607 
	C131.048965,375.761993 134.161392,376.453979 134.835480,375.850281 
	C135.969391,374.834747 137.251694,372.226837 136.743256,371.503265 
	C135.700424,370.019196 133.513123,369.339355 131.150803,368.828735 
z"/>
<path fill="#F4F4F4" opacity="1.000000" stroke="none" 
	d="
M243.051788,380.493774 
	C235.675415,381.467163 231.665863,379.146149 230.984665,373.913239 
	C230.334915,368.922058 232.702377,365.018616 237.064697,363.888397 
	C241.784866,362.665466 246.288513,364.621887 247.928116,368.607544 
	C249.802536,373.164032 248.214966,377.254791 243.051788,380.493774 
M236.162338,373.351257 
	C237.625076,374.336029 238.994919,375.628448 240.607941,376.115509 
	C241.083557,376.259094 243.098633,373.948395 242.916580,373.072357 
	C242.543274,371.275879 241.160919,369.689117 240.194000,368.015991 
	C238.826691,369.524963 237.459396,371.033936 236.162338,373.351257 
z"/>
<path fill="#F8F8F8" opacity="1.000000" stroke="none" 
	d="
M176.074509,375.020905 
	C176.074554,377.127136 176.074554,378.765778 176.074554,380.753784 
	C174.434479,380.849121 173.022156,380.931213 171.210541,381.036530 
	C171.132446,379.481689 171.028107,378.050262 170.996735,376.617249 
	C170.956833,374.793884 171.377258,372.838501 170.839203,371.187714 
	C170.429611,369.931091 168.850723,368.262726 167.763794,368.241760 
	C166.667877,368.220612 164.740265,369.889191 164.574982,371.021484 
	C164.127350,374.088287 164.421539,377.263397 164.421539,380.676208 
	C162.544037,380.676208 161.011444,380.676208 159.262573,380.676208 
	C159.262573,375.093872 159.262573,369.682617 159.262573,364.301056 
	C162.872559,364.082825 166.396042,363.718170 169.921341,363.699554 
	C173.402252,363.681152 175.431427,365.752106 175.958984,369.089325 
	C176.240814,370.872192 176.051270,372.729553 176.074509,375.020905 
z"/>
<path fill="#F8F8F8" opacity="1.000000" stroke="none" 
	d="
M328.610413,364.354919 
	C328.897034,369.735138 328.900024,374.727570 328.876892,379.719849 
	C328.875458,380.029602 328.668671,380.338409 328.433685,380.991638 
	C324.997101,380.991638 321.417145,381.161194 317.860687,380.944855 
	C314.173615,380.720581 312.150208,378.457275 311.992462,374.801941 
	C311.842926,371.336304 311.960327,367.859161 311.960327,363.997742 
	C313.564270,363.918457 314.980316,363.848480 316.800629,363.758545 
	C316.875427,365.345154 316.971771,366.787201 317.003967,368.230682 
	C317.041046,369.894165 316.627289,371.695953 317.144104,373.182159 
	C317.604370,374.505707 319.067444,375.480499 320.087921,376.609222 
	C321.265991,375.471313 323.226196,374.474396 323.461945,373.166595 
	C323.978821,370.299011 323.622070,367.273956 323.622070,363.967072 
	C325.440186,363.967072 326.880524,363.967072 328.610413,364.354919 
z"/>
<path fill="#D7D7D7" opacity="1.000000" stroke="none" 
	d="
M228.775436,156.004929 
	C225.931259,155.433701 223.494644,154.900589 221.058044,154.367462 
	C221.139160,153.824692 221.220291,153.281906 221.301407,152.739136 
	C222.949692,152.844040 224.628021,153.200867 226.240829,153.008423 
	C231.946594,152.327560 237.683258,151.716293 243.299469,150.553482 
	C246.137924,149.965790 247.370468,147.663651 247.014847,144.418808 
	C245.935989,134.574326 252.299973,129.385071 263.489532,131.617264 
	C259.802124,132.922379 256.726288,133.854813 253.780975,135.096725 
	C250.744766,136.376968 249.209595,138.490570 249.752274,142.168488 
	C250.899734,149.945053 249.149200,152.802628 241.500580,154.787582 
	C237.552063,155.812302 233.298645,155.662277 228.775436,156.004929 
z"/>
<path fill="#F3F3F3" opacity="1.000000" stroke="none" 
	d="
M365.537048,366.601990 
	C366.176361,367.775085 366.575684,368.648560 367.544708,370.768127 
	C364.484192,369.854370 362.483948,369.063141 360.409180,368.710297 
	C359.157074,368.497314 356.814606,368.659912 356.650574,369.183105 
	C356.092010,370.964844 355.934296,373.065704 356.368103,374.865234 
	C356.530426,375.538544 358.798584,376.181702 359.998505,376.022736 
	C362.148132,375.737946 364.215942,374.835144 366.760315,374.054993 
	C365.042755,379.805481 361.460754,381.998962 356.642395,380.914642 
	C352.266510,379.929901 349.351990,375.168549 350.284698,370.528290 
	C351.275421,365.599365 355.089386,362.790527 360.134827,363.725922 
	C361.952332,364.062866 363.581818,365.414001 365.537048,366.601990 
z"/>
<path fill="#FAFAFA" opacity="1.000000" stroke="none" 
	d="
M338.529358,363.711487 
	C343.299011,363.290771 346.655701,364.629669 348.493469,370.422791 
	C345.830475,369.720184 343.886871,369.043457 341.886597,368.738953 
	C340.614258,368.545349 338.237640,368.622711 338.115723,369.064270 
	C337.589600,370.970154 337.434540,373.107635 337.797424,375.038055 
	C337.887085,375.514954 340.449921,375.805145 341.836517,375.693420 
	C343.803192,375.534851 345.733490,374.924255 348.397766,374.352692 
	C346.506866,379.783508 343.277039,381.499481 338.882935,380.953125 
	C334.569946,380.416870 332.056793,377.819214 331.754517,373.383270 
	C331.426575,368.570953 332.876923,364.881073 338.529358,363.711487 
z"/>
<path fill="#FAFAFA" opacity="1.000000" stroke="none" 
	d="
M97.945007,380.955078 
	C95.829521,380.955048 94.184090,380.955048 92.246407,380.955048 
	C92.246407,373.725922 92.246407,366.666138 92.246407,359.383972 
	C93.709991,359.383972 95.108734,359.383972 96.903519,359.383972 
	C96.903519,365.057007 96.903519,370.657471 96.903519,376.612000 
	C99.333443,376.786255 101.404549,376.934753 103.601830,377.092316 
	C105.117012,382.845245 100.593040,380.341614 97.945007,380.955078 
z"/>
<path fill="#E9E9E9" opacity="1.000000" stroke="none" 
	d="
M154.563232,364.009583 
	C155.912476,365.215057 156.882889,366.532532 158.385620,368.572662 
	C148.204544,369.202423 153.274887,376.350861 151.250549,380.748505 
	C149.942886,380.834534 148.386490,380.936951 146.511780,381.060303 
	C146.511780,375.210785 146.511780,369.681396 146.511780,364.121552 
	C149.151733,364.121552 151.668060,364.121552 154.563232,364.009583 
z"/>
<path fill="#FAFAFA" opacity="1.000000" stroke="none" 
	d="
M226.031128,364.460358 
	C231.435226,362.941589 228.081833,366.970856 229.575211,368.535004 
	C220.379837,369.379395 225.454071,376.461670 223.450668,380.700500 
	C222.173645,380.700500 220.765213,380.700500 219.026428,380.700500 
	C219.026428,375.256073 219.026428,369.731262 219.026428,363.710693 
	C221.389923,364.075195 223.558655,364.409668 226.031128,364.460358 
z"/>
<path fill="#E0E0E0" opacity="1.000000" stroke="none" 
	d="
M301.199219,56.912556 
	C298.574097,54.912395 296.303833,52.857494 294.030121,50.462593 
	C293.449890,46.767517 296.279907,44.904102 298.182770,45.481415 
	C300.840302,46.287674 303.649384,48.592178 305.042023,51.028282 
	C306.544617,53.656639 304.699127,56.065372 301.199219,56.912556 
z"/>
<path fill="#F1F1F1" opacity="1.000000" stroke="none" 
	d="
M209.653595,138.049683 
	C210.359985,138.124573 211.096085,138.751953 211.174347,138.678513 
	C213.174500,136.800949 215.078110,134.821152 217.059769,132.923080 
	C218.228836,131.803345 219.502579,130.792908 220.729263,129.733307 
	C221.203262,130.125153 221.677261,130.517014 222.151260,130.908875 
	C221.222488,132.327332 220.315445,133.760635 219.359848,135.160782 
	C217.923584,137.265320 216.453323,139.346664 214.992859,141.816742 
	C214.608475,142.485458 214.241058,143.005478 213.846924,143.026611 
	C211.780319,143.137283 209.706955,143.121643 207.635941,143.149872 
	C208.216217,141.525116 208.796494,139.900360 209.653595,138.049683 
z"/>
<path fill="#EFEFEF" opacity="1.000000" stroke="none" 
	d="
M182.500916,383.606873 
	C181.359436,384.360626 180.435333,384.772949 178.690582,385.551392 
	C179.305984,381.976929 179.765961,379.305145 180.300079,376.202789 
	C181.835159,376.127167 183.382523,376.050934 185.346741,375.954163 
	C184.358658,378.702545 183.538467,380.983978 182.500916,383.606873 
z"/>
<path fill="#F3F3F3" opacity="1.000000" stroke="none" 
	d="
M280.635925,382.739319 
	C279.488190,383.807220 278.539246,384.521118 276.417328,386.117432 
	C277.151489,381.830078 277.609894,379.152863 278.109497,376.235199 
	C279.721344,376.235199 281.268433,376.235199 283.013641,376.235199 
	C282.242371,378.412140 281.538513,380.398712 280.635925,382.739319 
z"/>
<path fill="#040404" opacity="1.000000" stroke="none" 
	d="
M233.484314,257.457581 
	C238.562286,245.217667 243.428482,233.298264 248.485794,220.910767 
	C251.421585,228.473129 254.132141,235.524246 256.899567,242.552963 
	C258.161072,245.756897 259.459686,248.950470 260.873932,252.089066 
	C263.484406,257.882385 262.592834,260.534363 256.258392,261.915771 
	C247.877014,263.743530 239.327072,264.798309 230.123489,266.304108 
	C231.307419,263.098694 232.289993,260.438416 233.484314,257.457581 
z"/>
<path fill="#F1F1F1" opacity="1.000000" stroke="none" 
	d="
M231.109802,115.967628 
	C231.931931,116.717628 232.754074,117.467628 233.576218,118.217621 
	C232.871582,118.205391 232.166962,118.193169 231.230881,117.737137 
	C231.036224,116.851425 231.073013,116.409531 231.109802,115.967628 
z"/>
<path fill="#010101" opacity="1.000000" stroke="none" 
	d="
M230.955048,115.840210 
	C231.073013,116.409531 231.036224,116.851425 230.941010,117.621292 
	C230.518631,117.567451 230.154694,117.185646 229.762115,116.515015 
	C229.733490,116.226181 230.094162,115.888542 230.267944,115.711014 
	C230.441742,115.533478 230.800308,115.712784 230.955048,115.840210 
z"/>
<path fill="#080808" opacity="1.000000" stroke="none" 
	d="
M414.989929,376.357849 
	C411.363831,375.310089 411.232269,372.802765 412.157227,370.376862 
	C412.558441,369.324585 414.639465,367.923615 415.384552,368.203979 
	C416.802185,368.737366 418.945068,370.625946 418.748413,371.485352 
	C418.335632,373.289368 416.603210,374.791443 414.989929,376.357849 
z"/>
<path fill="#080808" opacity="1.000000" stroke="none" 
	d="
M131.473892,368.578583 
	C133.513123,369.339355 135.700424,370.019196 136.743256,371.503265 
	C137.251694,372.226837 135.969391,374.834747 134.835480,375.850281 
	C134.161392,376.453979 131.048965,375.761993 131.005569,375.409607 
	C130.740234,373.254608 131.039612,371.030090 131.473892,368.578583 
z"/>
<path fill="#0D0D0D" opacity="1.000000" stroke="none" 
	d="
M236.127228,372.947083 
	C237.459396,371.033936 238.826691,369.524963 240.194000,368.015991 
	C241.160919,369.689117 242.543274,371.275879 242.916580,373.072357 
	C243.098633,373.948395 241.083557,376.259094 240.607941,376.115509 
	C238.994919,375.628448 237.625076,374.336029 236.127228,372.947083 
z"/>
</svg>